<svg xmlns="http://www.w3.org/2000/svg" xmlns:xlink="http://www.w3.org/1999/xlink" width="600.125" height="281.848" viewBox="0 0 600.125 281.848">
  <defs>
    <linearGradient id="linear-gradient" x1="0.5" x2="0.5" y2="1" gradientUnits="objectBoundingBox">
      <stop offset="0" stop-color="#6daa42"/>
      <stop offset="1" stop-color="#a1d9f1"/>
    </linearGradient>
  </defs>
  <g id="Group_8" data-name="Group 8" transform="translate(0 0)">
    <g id="Group_9" data-name="Group 9" transform="translate(0 0)">
      <path id="Path_51" data-name="Path 51" d="M502.881,191.934c-5.179-2.627-13.763-3.257-21.237,1.3a9.07,9.07,0,0,0-.777.519V139.14c0-10.248-7.732-21.68-18.868-21.68a17.521,17.521,0,0,0-13.43,6.7v-4.7c0-10.248-7.732-21.68-18.868-21.68s-18.979,11.433-18.979,21.68V130.3a17.849,17.849,0,0,0-12.728-5.4c-10.062,0-18.277,8.548-18.277,19.017v18.61a16.127,16.127,0,0,0-11.544-4.811c-9.8,0-17.167,8.139-17.167,18.943V289.978c0,34.481,13.8,47.431,18.424,50.8v32.114a2.774,2.774,0,0,0,5.549,0V339.26a2.847,2.847,0,0,0-1.443-2.441c-.186-.111-16.981-9.951-16.981-46.876V176.618c0-7.771,4.883-13.394,11.618-13.394s11.544,5.623,11.544,13.394v54.866a2.774,2.774,0,1,0,5.549,0V143.913c0-7.438,5.7-13.466,12.728-13.466s12.728,6.031,12.728,13.466v78.619a2.774,2.774,0,1,0,5.549,0V119.455c0-8.287,6.511-16.13,13.43-16.13,7.621,0,13.319,8.509,13.319,16.13v93.233a2.774,2.774,0,1,0,5.548,0V139.136c0-8.287,6.511-16.13,13.43-16.13,7.621,0,13.319,8.509,13.319,16.13v59.788c-4.367,5.549-7.954,14.615-7.954,29.488v10.839c-4.958-.111-20.682.408-32.484,11.247-8.916,8.176-13.43,20.238-13.43,35.813a2.774,2.774,0,0,0,5.549,0c0-13.949,3.884-24.6,11.579-31.707,10.323-9.508,24.713-9.915,28.747-9.8v12.32a2.774,2.774,0,1,0,5.548,0V228.408c0-11.58,2.33-20.421,6.808-26.083a2.742,2.742,0,0,0,.7-.777,18.758,18.758,0,0,1,4.106-3.59,17.456,17.456,0,0,1,14.318-1.739v61.194c0,71.848-28.894,79.1-29.155,79.141a2.777,2.777,0,0,0-2.219,2.738v33.629a2.774,2.774,0,1,0,5.549,0v-31.6c7.549-3,31.374-17.722,31.374-83.872V194.41a2.815,2.815,0,0,0-1.517-2.48Z" transform="translate(-232.64 -97.777)" fill="url(#linear-gradient)"/>
      <path id="Path_94" data-name="Path 94" d="M429.8,146.628a11.734,11.734,0,0,0-11.018.672,4.667,4.667,0,0,0-.4.269V119.237c0-5.317-4.011-11.248-9.789-11.248a9.09,9.09,0,0,0-6.968,3.475v-2.438c0-5.317-4.012-11.248-9.789-11.248s-9.847,5.932-9.847,11.248v5.623a9.26,9.26,0,0,0-6.6-2.8,9.7,9.7,0,0,0-9.483,9.867v9.655a8.366,8.366,0,0,0-5.989-2.5c-5.087,0-8.906,4.223-8.906,9.828v58.8c0,17.89,7.159,24.608,9.559,26.355v16.662a1.439,1.439,0,1,0,2.879,0V223.064a1.477,1.477,0,0,0-.749-1.267c-.1-.058-8.81-5.163-8.81-24.321v-58.8c0-4.032,2.533-6.949,6.028-6.949s5.989,2.918,5.989,6.949v28.466a1.439,1.439,0,0,0,2.879,0V121.713a6.614,6.614,0,1,1,13.208,0V162.5a1.439,1.439,0,1,0,2.879,0V109.024c0-4.3,3.378-8.368,6.968-8.368,3.954,0,6.91,4.415,6.91,8.368V157.4a1.439,1.439,0,0,0,2.879,0V119.235c0-4.3,3.378-8.368,6.968-8.368,3.954,0,6.91,4.415,6.91,8.368v31.019c-2.265,2.879-4.127,7.582-4.127,15.3v5.624c-2.572-.058-10.73.212-16.853,5.835-4.626,4.242-6.968,10.5-6.968,18.581a1.439,1.439,0,1,0,2.879,0c0-7.237,2.015-12.764,6.008-16.45,5.356-4.933,12.822-5.144,14.915-5.087v6.392a1.439,1.439,0,0,0,2.879,0v-14.9c0-6.008,1.209-10.6,3.532-13.533a1.424,1.424,0,0,0,.364-.4,9.733,9.733,0,0,1,2.13-1.862,9.057,9.057,0,0,1,7.429-.9V180.6c0,37.276-14.991,41.04-15.126,41.06a1.441,1.441,0,0,0-1.151,1.421v17.448a1.439,1.439,0,0,0,2.879,0V224.136c3.916-1.555,16.277-9.194,16.277-43.515V147.912a1.461,1.461,0,0,0-.787-1.287Z" transform="translate(-318.437 37.915)" fill="url(#linear-gradient)"/>
      <path id="Path_95" data-name="Path 95" d="M396.4,125.917a6.76,6.76,0,0,0-6.347.387,2.691,2.691,0,0,0-.232.155V110.139c0-3.063-2.311-6.48-5.639-6.48a5.237,5.237,0,0,0-4.014,2v-1.4c0-3.063-2.311-6.48-5.639-6.48s-5.672,3.417-5.672,6.48V107.5a5.335,5.335,0,0,0-3.8-1.614,5.589,5.589,0,0,0-5.462,5.684v5.562a4.82,4.82,0,0,0-3.45-1.438c-2.93,0-5.131,2.433-5.131,5.661V155.22c0,10.305,4.124,14.176,5.506,15.182V180a.829.829,0,1,0,1.658,0V169.949a.851.851,0,0,0-.431-.73c-.056-.033-5.075-2.974-5.075-14.01V121.34c0-2.322,1.459-4,3.472-4s3.45,1.681,3.45,4v16.4a.829.829,0,0,0,1.658,0V111.565a3.81,3.81,0,1,1,7.608,0v23.5a.829.829,0,1,0,1.658,0V104.256c0-2.477,1.946-4.821,4.014-4.821,2.278,0,3.981,2.543,3.981,4.821V132.12a.829.829,0,1,0,1.658,0V110.138c0-2.477,1.946-4.821,4.014-4.821,2.278,0,3.981,2.543,3.981,4.821v17.869c-1.305,1.658-2.377,4.368-2.377,8.813v3.239c-1.482-.033-6.181.122-9.708,3.361-2.665,2.443-4.014,6.049-4.014,10.7a.829.829,0,0,0,1.658,0c0-4.169,1.161-7.353,3.461-9.476,3.085-2.842,7.386-2.963,8.592-2.93V145.4a.829.829,0,1,0,1.658,0v-8.581c0-3.461.7-6.1,2.035-7.8a.818.818,0,0,0,.21-.232,5.612,5.612,0,0,1,1.227-1.073,5.217,5.217,0,0,1,4.279-.52v18.289c0,21.473-8.635,23.641-8.713,23.653a.83.83,0,0,0-.663.818v10.051a.829.829,0,0,0,1.658,0v-9.443c2.256-.9,9.377-5.3,9.377-25.067V126.658a.841.841,0,0,0-.454-.741Z" transform="translate(-73.056 92.027)" fill="url(#linear-gradient)"/>
      <path id="Path_89" data-name="Path 89" d="M-5.305,272.231A140.364,140.364,0,0,0,66.25,149.673C66.25,71.972,3.033,8.75-74.673,8.75S-215.6,71.972-215.6,149.673a140.367,140.367,0,0,0,71.555,122.558,70.829,70.829,0,0,0-6.068,9.275H-533.875V290.6H48.064v-9.092H.76a71.676,71.676,0,0,0-6.07-9.275Zm40.059-49.045-8.579-7.35a15.383,15.383,0,0,1-5.382-11.692v-12.82A24.451,24.451,0,0,0,4.046,168.1,15.391,15.391,0,0,1-6.482,153.484v-2.05a15.42,15.42,0,0,1,15.4-15.4,83.107,83.107,0,0,0,45.39-13.62,131.63,131.63,0,0,1,2.851,27.257,131.444,131.444,0,0,1-22.407,73.514Zm2.9-142.425c-.631.741-1.242,1.408-1.859,2.027L28.943,89.64A34.034,34.034,0,0,1,4.724,99.672H-4.049A34.036,34.036,0,0,1-28.27,89.639a43.063,43.063,0,0,0-30.648-12.7H-87.139A10.272,10.272,0,0,1-97.4,66.682a10.251,10.251,0,0,1,4.568-8.538A50.82,50.82,0,0,0-70.261,17.953,131.893,131.893,0,0,1,37.656,80.76ZM-161.692,50.77a104.267,104.267,0,0,1,22.121,20.5,26.618,26.618,0,0,1,5.8,16.562v8.073a26.315,26.315,0,0,1-7.761,18.737,35.341,35.341,0,0,0-10.423,25.163v6.1a26.679,26.679,0,0,1-7.761,18.737l-4.777,4.777a10.268,10.268,0,0,1-7.2,2.979,10.225,10.225,0,0,1-9.993-8.191,46.331,46.331,0,0,0-23.661-31.708,131.7,131.7,0,0,1,43.655-81.738Zm-44.81,98.909c0-2.4.073-4.787.2-7.156A37.261,37.261,0,0,1-190.6,166a19.346,19.346,0,0,0,18.906,15.5,19.427,19.427,0,0,0,13.634-5.646l4.777-4.777a35.343,35.343,0,0,0,10.423-25.167v-6.1a26.315,26.315,0,0,1,7.761-18.737,35.341,35.341,0,0,0,10.423-25.163V87.833a35.724,35.724,0,0,0-7.8-22.234,113.233,113.233,0,0,0-21.942-20.812A131.112,131.112,0,0,1-79.358,17.961a41.745,41.745,0,0,1-18.52,32.617,19.329,19.329,0,0,0-8.615,16.106A19.372,19.372,0,0,0-87.14,86.036h28.221A34.036,34.036,0,0,1-34.7,96.069a43.055,43.055,0,0,0,30.646,12.7H4.721a43.059,43.059,0,0,0,30.648-12.7l6.859-6.855c.041-.041.077-.087.118-.128a130.634,130.634,0,0,1,9.569,23.884,74.044,74.044,0,0,1-43,13.979,24.52,24.52,0,0,0-24.493,24.489v2.05A24.451,24.451,0,0,0,1.171,176.717,15.391,15.391,0,0,1,11.7,191.329v12.82a24.479,24.479,0,0,0,8.556,18.6l9.146,7.838a132.1,132.1,0,0,1-40.887,34.7,69.918,69.918,0,0,0-49.3-20.144h-9.345v-9.092h31.821A40.957,40.957,0,0,0,2.608,195.139v-4.546H-38.305a40.845,40.845,0,0,0-31.821,15.251V158.771h13.638A31.86,31.86,0,0,0-24.667,126.95V122.4H-47.4a31.846,31.846,0,0,0-30.876,24.27,31.716,31.716,0,0,0-23.675-10.632h-22.73v4.546a31.862,31.862,0,0,0,31.821,31.821h13.638v24.343A40.845,40.845,0,0,0-111.04,181.5h-40.913v4.546A40.957,40.957,0,0,0-111.04,226.96h31.821v18.184h-9.345a69.929,69.929,0,0,0-49.3,20.142A131.342,131.342,0,0,1-206.5,149.679ZM-69.8,226.96a31.867,31.867,0,0,1,31.5-27.275h31.5A31.867,31.867,0,0,1-38.3,226.96Zm.136-77.281A22.769,22.769,0,0,1-47.4,131.5h13.179a22.769,22.769,0,0,1-22.271,18.184Zm-10.009,13.638H-92.855a22.765,22.765,0,0,1-22.271-18.184h13.179A22.765,22.765,0,0,1-79.676,163.317Zm.136,54.551h-31.5a31.871,31.871,0,0,1-31.5-27.275h31.5A31.871,31.871,0,0,1-79.54,217.868Zm-9.023,36.367h27.781A60.83,60.83,0,0,1-9.841,281.51H-139.5a60.826,60.826,0,0,1,50.939-27.275Z" transform="translate(533.875 -8.75)" fill="url(#linear-gradient)"/>
    </g>
    <path id="Path_90" data-name="Path 90" d="M288.75,498.75h9.092v9.092H288.75Z" transform="translate(138.63 -244.179)" fill="url(#linear-gradient)"/>
    <path id="Path_91" data-name="Path 91" d="M341.25,498.75h9.092v9.092H341.25Z" transform="translate(113.406 -244.179)" fill="url(#linear-gradient)"/>
    <path id="Path_92" data-name="Path 92" d="M393.75,498.75h9.092v9.092H393.75Z" transform="translate(88.181 -244.179)" fill="url(#linear-gradient)"/>
    <path id="Path_93" data-name="Path 93" d="M603.75,533.75h9.092v9.092H603.75Z" transform="translate(-12.717 -260.995)" fill="url(#linear-gradient)"/>
  </g>
</svg>
